<?xml version="1.0" encoding="UTF-8" standalone="no"?><!DOCTYPE svg PUBLIC "-//W3C//DTD SVG 1.1//EN" "http://www.w3.org/Graphics/SVG/1.1/DTD/svg11.dtd"><svg width="100%" height="100%" viewBox="0 0 540 540" version="1.1" xmlns="http://www.w3.org/2000/svg" xmlns:xlink="http://www.w3.org/1999/xlink" xml:space="preserve" xmlns:serif="http://www.serif.com/" style="fill-rule:evenodd;clip-rule:evenodd;stroke-linejoin:round;stroke-miterlimit:2;"><rect id="Safe" x="0" y="0" width="540" height="540" style="fill:none;"/><g id="Safe1" serif:id="Safe"><g id="secure"><path d="M109.74,117.753l-0,176.286c-0,120.195 160.26,192.313 160.26,192.313l-0,-432.704l-160.26,64.105Z" style="fill:#47bd9c;fill-rule:nonzero;"/><path d="M430.26,294.039l0,-176.286l-160.26,-64.105l-0,432.704c-0,-0 160.26,-72.118 160.26,-192.313Z" style="fill:#299a8d;fill-rule:nonzero;"/><path d="M109.74,294.039l-0,-176.286l160.26,-64.105l-0,-40.065l-192.313,80.131l0,200.325c0,152.247 192.313,232.378 192.313,232.378l-0,-40.065c-0,-0 -160.26,-72.118 -160.26,-192.313Z" style="fill:#647b8b;fill-rule:nonzero;"/><path d="M270,53.648l160.26,64.105l0,176.286c0,120.195 -160.26,192.313 -160.26,192.313l-0,40.065c-0,-0 192.312,-80.131 192.312,-232.378l0,-200.325l-192.312,-80.131l-0,40.065Z" style="fill:#3a5569;fill-rule:nonzero;"/><path d="M221.922,221.922l-24.039,24.039l72.117,72.117l-0,-48.078l-48.078,-48.078Z" style="fill:#fff;fill-rule:nonzero;"/><path d="M350.13,189.87l-80.13,80.13l-0,48.078l104.169,-104.169l-24.039,-24.039Z" style="fill:#e1e6e8;fill-rule:nonzero;"/></g></g></svg>