<?xml version="1.0" encoding="UTF-8" standalone="no"?><!DOCTYPE svg PUBLIC "-//W3C//DTD SVG 1.1//EN" "http://www.w3.org/Graphics/SVG/1.1/DTD/svg11.dtd"><svg width="100%" height="100%" viewBox="0 0 540 540" version="1.1" xmlns="http://www.w3.org/2000/svg" xmlns:xlink="http://www.w3.org/1999/xlink" xml:space="preserve" xmlns:serif="http://www.serif.com/" style="fill-rule:evenodd;clip-rule:evenodd;stroke-linejoin:round;stroke-miterlimit:2;"><rect id="Unsafe" x="0" y="0" width="540" height="540" style="fill:none;"/><g id="Unsafe1" serif:id="Unsafe"><g id="no-entry"><path d="M504.417,270c-0,129.463 -104.954,234.417 -234.417,234.417c-129.463,-0 -234.417,-104.954 -234.417,-234.417c0,-129.463 104.954,-234.417 234.417,-234.417c129.463,0 234.417,104.954 234.417,234.417Z" style="fill:#f06050;fill-rule:nonzero;"/><path d="M270,439.75c-36.221,0 -70.737,-11.349 -97,-32.333l218.25,-218.25c20.984,26.262 32.333,60.778 32.333,97c0,84.826 -68.757,153.583 -153.583,153.583Zm-153.583,-153.583c-0,-84.827 68.757,-153.584 153.583,-153.584c36.221,0 70.737,11.349 97,32.334l-218.25,218.25c-20.984,-26.263 -32.333,-60.779 -32.333,-97Zm153.583,-185.917c-102.674,-0 -185.917,83.242 -185.917,185.917c0,102.674 83.243,185.916 185.917,185.916c102.674,0 185.917,-83.242 185.917,-185.916c-0,-102.675 -83.243,-185.917 -185.917,-185.917Z" style="fill:#d45443;fill-rule:nonzero;"/><path d="M270,423.583c-36.221,0 -70.737,-11.349 -97,-32.333l218.25,-218.25c20.984,26.263 32.333,60.779 32.333,97c0,84.827 -68.757,153.583 -153.583,153.583Zm-153.583,-153.583c-0,-84.827 68.757,-153.583 153.583,-153.583c36.221,-0 70.737,11.349 97,32.333l-218.25,218.25c-20.984,-26.263 -32.333,-60.779 -32.333,-97Zm153.583,-185.917c-102.674,0 -185.917,83.242 -185.917,185.917c0,102.675 83.243,185.917 185.917,185.917c102.674,-0 185.917,-83.242 185.917,-185.917c-0,-102.675 -83.243,-185.917 -185.917,-185.917Z" style="fill:#fff;fill-rule:nonzero;"/></g></g></svg>