<?xml version="1.0" encoding="UTF-8" standalone="no"?><!DOCTYPE svg PUBLIC "-//W3C//DTD SVG 1.1//EN" "http://www.w3.org/Graphics/SVG/1.1/DTD/svg11.dtd"><svg width="100%" height="100%" viewBox="0 0 540 540" version="1.1" xmlns="http://www.w3.org/2000/svg" xmlns:xlink="http://www.w3.org/1999/xlink" xml:space="preserve" xmlns:serif="http://www.serif.com/" style="fill-rule:evenodd;clip-rule:evenodd;stroke-linejoin:round;stroke-miterlimit:2;"><rect id="Warning" x="0" y="0" width="540" height="540" style="fill:none;"/><g id="Warning1" serif:id="Warning"><g id="warning"><path d="M515.292,451.989c-0,17.407 -14.243,31.65 -31.65,31.65l-427.28,-0c-17.415,-0 -31.65,-14.243 -31.65,-31.65c0,-17.408 14.235,-31.651 31.65,-31.651l427.28,0c17.407,0 31.65,14.243 31.65,31.651Z" style="fill:#cf422c;fill-rule:nonzero;"/><path d="M246.296,72.256c13.618,-20.399 32.79,-21.973 47.42,0l213.355,340.019c15.801,23.714 7.897,39.714 -15.81,39.714l-442.526,-0c-23.706,-0 -31.611,-16 -15.802,-39.714l213.363,-340.019Z" style="fill:#f06050;fill-rule:nonzero;"/><path d="M270.002,103.835l-197.814,316.503l395.628,0l-197.814,-316.503Z" style="fill:#fad462;fill-rule:nonzero;"/><path d="M270.002,333.3c-8.743,-0 -15.825,-7.09 -15.825,-15.825l-0,-94.951c-0,-8.736 7.082,-15.825 15.825,-15.825c8.736,-0 15.825,7.089 15.825,15.825l0,94.951c0,8.735 -7.089,15.825 -15.825,15.825Z" style="fill:#5c5d5e;fill-rule:nonzero;"/><path d="M285.827,364.95c0,8.736 -7.089,15.825 -15.825,15.825c-8.743,0 -15.825,-7.089 -15.825,-15.825c-0,-8.735 7.082,-15.825 15.825,-15.825c8.736,0 15.825,7.09 15.825,15.825Z" style="fill:#5c5d5e;fill-rule:nonzero;"/></g></g></svg>